<?xml version="1.0" encoding="UTF-8"?>
<svg id="Layer_2" data-name="Layer 2" xmlns="http://www.w3.org/2000/svg" viewBox="0 0 3196.66 945.45">
  <defs>
    <style>
      .cls-1 {
        fill: #43493d;
      }

      .cls-2 {
        fill: #a8c24d;
      }

      .cls-3 {
        stroke: #a8c24d;
        stroke-linecap: round;
        stroke-linejoin: round;
        stroke-width: 15px;
      }

      .cls-3, .cls-4 {
        fill: none;
      }

      .cls-4 {
        stroke: #43493d;
        stroke-miterlimit: 10;
        stroke-width: 3px;
      }
    </style>
  </defs>
  <g id="Layer_1-2" data-name="Layer 1">
    <g>
      <g>
        <g>
          <path class="cls-1" d="M433.96,747.46c10.82-8.16,31.5-26.08,39.1-35.83l9.21-11.82c4.86-6.23,10.14-13.46,13.66-20.43,2.82-5.59,6.46-9.6,12.03-12.17,6.23-2.87,12.09-3.69,18.29-.16,9.01,5.13,15.42,12.26,13.52,23.88-.87,5.31-3.03,8.82-5.95,13.16l-6.04,8.95-6.01,9.02c-2.7,4.05-5.6,7.58-8.64,11.41-12.12,15.27-25.51,28.34-40.58,40.48l-9.64,7.76c-27.76,22.35-60.32,38.28-95.01,46.94l-14.49,3.62c-3.89.97-7.52,1.93-11.77,2.53s-6.58,1.14-9.64,1.46l-22.97,2.36c-16.85,1.73-33.43.07-50.38-1-6.48-.41-12.17-1.5-18.33-2.63l-14.8-2.72-11.94-3.03-9.9-2.99c-23.61-7.12-45.6-16.67-66.51-29.64-11.24-6.98-19.82-12.32-30.06-21.04-3.32-2.82-7.63-5.22-10.78-8.33-10.01-9.86-20.04-19.04-29.32-29.66-3.94-4.5-22.49-29.52-24.92-33.9l-15.46-27.83c-2.73-4.91-4.75-10.02-6.78-15.13-5.71-14.36-9.12-22.8-12.74-38.07-1.7-7.17-5.7-30.1-6.12-36.67-2.17-34.57-1.27-73.61,9-106.7l3.13-10.09c6.2-19.99,19.08-47.09,30.31-65.12,4.82-7.75,9.91-14.66,15.2-21.93,11.98-16.5,39.13-43.89,55.36-55.64l10.63-7.69c1.86-1.35,4.03-3.42,6.1-4.69,20.18-12.42,40.67-23.58,63.11-31.06l9-3,9.91-3.12c12.33-3.88,32.48-7.32,45.68-8.57,4.65-.44,9.64-1.83,14.42-1.99,13.13-.45,26.42-1.46,39.43.28l21.25,2.84,18.79,3.11c22.94,3.8,55.03,16.75,75.65,28.16,28.81,15.95,64.97,44.96,84.8,71.34l7.71,10.26c4.43,5.89,8.07,11.99,11.07,18.69,4.44,9.94-3.93,25.52-14.12,27.73-24.02,5.2-27.74-13.6-32.76-19.63l-14.68-17.64c-11.39-13.68-30.33-29.59-45.29-39.31l-9.61-6.25c-7-4.55-13.97-9.38-21.53-12.34l-16.91-6.62-10.6-3.6c-3.01-1.02-5.97-1.92-9.11-2.67l-13.12-3.15-16.18-2.89c-20.68-3.7-51.36-3.49-72.02.21l-16.11,2.88-12.04,2.86c-30.54,7.26-62.6,24.13-87.55,42.75-4.64,3.46-8.47,7.36-12.87,11.22-24.29,21.33-46.15,50.12-59.21,79.35-12.79,28.63-19.38,52.86-21.57,84.16-1.28,18.31-.63,34.8,2.24,52.9,7.45,46.93,26.21,82.78,55.92,119.54,9.11,11.28,27.59,27.25,39.56,35.93,11.55,8.39,32.02,21,44.54,26.19l12.36,5.13c2.82,1.17,6.31,2.3,9.41,3.32l8.91,2.95c29.58,9.8,65.62,11.74,97,9.01,6.12-.53,12.71-2.03,18.72-3.17l14.33-2.7,4.53-1.61,12.57-3.65c20.84-6.06,50.62-21.62,67.66-34.47Z"/>
          <path class="cls-1" d="M1388,341.9l-16.18,30.47-18.53,35.49-17.83,34.97-6.86,12.75-6.22,12.02-46.65,90.54-42.65,83.31-6.51,12.13-6.16,12.01-37.13,72.98-21.19,41-21.61,41.27c-2.67,5.09-7.03,8.91-11.95,11.27l-6.16,2.96c-13.59,6.53-31.34-5.14-35.68-13.49l-28.12-54.02-6.47-12.45-6.63-12.23-36.26-70.59-50.96-98.89-21.5-41.82-47.61-93.11-26.85-51.09-10.76-20.48-19.58-37.17-15.71-29.34c-3.37-6.3-3.92-12.01-.81-18.28,5.32-10.73,14.5-18.53,26.93-15.39,10.53,2.66,15.02,9.09,18.67,18.31,3.48,8.78,8.5,17.26,12.83,25.66l16.42,31.88,52.9,103.71,21.45,41.77,19.67,38.36,33.59,66.26,31,60.2,16.96,32.93,25.71,48.72c2.34,4.43,4.48,8.55,6.52,13,5.51,12.05,7.7,13.73,12.72,24.57.42.91,2.33,2.29,3.28,2.19s1.42-2.48,1.98-3.56l19-36.34,35.86-69.06,51.41-99.38,47.84-94.04,21.22-40.98,29.2-56.74,15.79-30.27,15.68-30.37,18.23-36.45c3.05-6.1,14.45-12.67,23.99-10.06,7.59,2.08,13.07,6.75,16.29,14.08,4.76,10.84-.86,20.65-6.52,29.91-6.03,9.88-10.4,20.27-16.04,30.89Z"/>
          <g>
            <path class="cls-2" d="M2803.64,828.98c-4.63,9.95-13.05,14.76-22.74,12.43-4.5-1.08-13.12-4.47-13.92-10.64-1.93-14.86-.2-28.94-1.06-44.19l-8.35-.7c-8.83-.74-17.12-1.04-26,.09-4.31.55-8.52-.85-12.51-2.28-6.8-2.43-9.53-8.5-9.91-15.91-.4-7.65,4.22-17.9,13.28-18.61,12.78-1,25.2-.42,37.96-.55,2.35-.03,4.91-1.32,5.18-3.39,1.87-14.45-1.27-28.96,1.6-42.37,2.45-11.44,15.28-15.38,24.57-11.01,4.53,2.13,11.4,6.7,11.46,12.21l.5,44.31,45.73,1.05c4.84.11,15.12,11.7,10.66,24.4-2.28,6.49-9.82,11.28-16.73,11.74-11.34.75-22.2.49-33.66.21-1.53-.04-5.09-.87-5.82.37-2.12,3.61-.6,7.52-.56,11.08l.34,31.75Z"/>
            <path class="cls-1" d="M2957.63,834.25c-12.51-.27-18.13,5.26-42.63,2.4-8.74-1.02-15.57-8.48-16.78-16.35-1.84-12.01,4.28-22.2,16.37-25.57,7.95-2.22,17.68-.05,26.6-1.57l18-3.07c4.66-.79,9.76-1.96,14.44-3.25l10.18-2.81,8.99-2.93,9.17-3.12c1.47-.5,4.11-2.12,5.86-3.06,9.88-5.32,26.53-2.68,30.29,11.93,2.56,9.95.05,19.39-8.76,25.24-3.35,2.22-7.86,3.62-11.85,5.22l-14.89,5.96c-2.66,1.07-5.46,2.08-8.35,2.86l-11.27,3.05c-4.99,1.35-9.69,2.09-15.08,2.94-3.12.49-6.82,2.24-10.28,2.17Z"/>
            <path class="cls-1" d="M2800.79,341.23c-16.96,9.5-32.25,19.9-46.71,32.45-7.59,6.59-15.11,13.57-21.32,21.38l-11.99,15.06c-1.92,2.41-3.93,5.63-5.68,8.34l-6.97,10.8c-9.59,14.86-16.5,30.53-22.42,46.91l-2.74,7.6c-1.16,3.2-2.21,6.35-2.95,9.77l-2.9,13.49-2.96,18.9c-3.03,19.37-3.03,37.8-.02,57.07,1.06,6.81,1.13,13.54,2.77,20.23l3.19,13.02,2.98,9.94,3.06,9.07,2.87,7.99c1,2.79,1.92,5.49,3.18,7.99l8.82,17.61c2.58,5.15,2.1,12.94.02,18.51-2.7,7.23-10.7,11.33-18.31,12.22-10.72,1.26-17.38-4.16-22.2-12.98-6.02-11.02-11.96-22-16.29-34.2l-3.43-9.66c-.98-2.76-2.21-6.04-2.88-8.87l-3.05-12.94c-4.71-20.01-9.56-73.95-6.02-90.54,0,0,.84-7.56,1.26-10.06.63-3.76,2.87-19.64,6.33-33.86l2.07-8.5c3.88-15.93,17.05-46.8,24.95-61.48,8.17-15.19,17.1-29.3,28.05-42.51,15.07-18.16,23.3-27.72,42.44-42.79,5.48-4.32,10.4-8.54,16.31-12.69,38.09-26.77,81.75-43.67,128.24-49.93,22.47-3.02,36.1-3.87,58.96-1.42l21.92,2.35c6.14.66,12.51,1.83,18.55,3.38,41.04,10.47,79.31,27.47,112.05,54.6,3.93,3.25,8.64,6.11,12.28,9.71l20.14,19.96c5.91,5.86,19.84,22.97,24.32,29.84l5.55,8.51c20.95,32.19,34.42,68.74,40.53,106.84,1.11,6.94,3.47,14.65,3.48,21.88l.36,296.27c-2.45,8.12-7.46,12.67-14.67,15.05-9.15,3.02-16.46.54-23.16-5.31-5.99-5.23-5.78-9.46-5.78-16.46v-271.93c.01-3.98-3.97-31.99-5.2-36.94l-2.77-11.15-3.15-10.97c-6.63-23.1-17.14-43.99-29.88-64.27-2.49-3.97-4.73-8.03-7.55-11.56-4.17-5.21-8.02-10.62-12.53-15.46-8.37-8.97-16.65-17.84-26.03-25.57-19.36-15.94-46.73-31.27-69.95-39.57l-8.13-2.9c-7.04-2.52-15.62-4.71-23.14-6.02l-16.12-2.82c-4.35-.76-8.97-1.89-13.45-2.08-13.95-.61-27.4-.59-41.41-.06-3.98.15-8.37,1.65-12.26,2.25-25.01,3.86-59.07,14.39-80.67,26.49Z"/>
          </g>
          <path class="cls-1" d="M2296.23,819.23c0,4.54-9.9,21.33-26.53,16.46-6.52-1.91-16.45-7.46-16.45-16.76l-.11-305.64c0-5.11.12-9.67.84-14.15l3.05-19.06c.66-4.11,1.63-8.73,2.75-12.98l3.36-12.81,2.65-9.24c.83-2.9,1.94-6.13,3-9.01l2.93-7.9,7.23-16.56c2.96-6.77,6.12-13.27,9.83-19.73l7.89-13.74c1.71-2.97,4.13-5.89,6.2-8.61l9.85-13c15.69-20.7,36.23-37.27,57.6-51.85,9.15-6.24,25.99-15.94,36.18-19.56l28.1-9.99c2.63-.94,5.65-1.71,8.4-2.39,5.87-1.45,33.59-6.29,37.67-6.3l127.93-.57c8.36-.04,15.48,7.9,17.69,14.09,3.01,8.42,1.58,18.52-4.82,23.85-2.68,2.23-5.89,3.73-9.03,5.62l-114.62.12-18.24,2.46c-5.28.71-10.12,1.46-15.18,2.62l-10.73,2.47c-20.99,4.83-40,13.34-57.98,25.36l-10.2,6.81c-14.1,9.42-21.19,17.38-33.08,29.68-3.04,3.15-5.49,7.36-8.33,10.72-18.43,21.74-35.16,56.57-40.47,83.77l-2.94,15.07-3.09,17.22c-.93,5.2-.85,10.6-.86,16.58l-.51,296.94Z"/>
          <path class="cls-1" d="M1680.4,795.74l-3.88,13-2.97,9.7-2.85,8.37-3.09,9.08c-3.29,9.68-5.14,25.26-18.24,22.24-2.93-.68-7.03-5.05-8.16-8.1l-.55-112.43c-.04-8.64-11.54-8.89-17.1-8.88l-100.9.25c-2.42-.88-6.38-2.41-8.12-3.67-4.3-3.11-4.14-8.43-2.6-12.04,2.01-4.72,5.69-6.12,10.59-7.59l9.23-2.77,8.97-3,8.34-2.83,10.21-3.54c6.33-2.2,11.95-2.33,13.18-5.4.52-1.29-.85-3.96-1.67-5.37-3.58-6.22-6.21-12.56-8.86-19.09l-4.39-10.82c-.87-2.14-1.84-4.84-2.49-6.94l-2.88-9.33c-1.48-4.81-5.2-18.51-5.98-22.87l-3.05-17.07c-1.95-10.91-3.07-39.8-2.16-51.34,1.45-18.46,1-24.45,5.32-42.77l2.45-10.36c.87-3.68,1.78-7.57,2.91-11.2l3.33-10.71c.78-2.52,1.99-5.32,2.99-7.83l2.52-6.28c7.36-18.38,18.85-40.39,30.97-56.23l9.46-12.35c12.59-16.45,23.29-26.3,39.08-39.18,4.67-3.81,9.05-7.64,14.06-11.05l8.3-5.64c17.92-12.17,36.76-21.38,56.97-28.64,4.23-1.52,8.43-3.24,12.75-4.44l8.54-2.36,12.05-2.87c20.83-4.96,61.64-8.94,81.39-6.02l12.61,1.87c6.14.91,11.44,1.47,17.25,2.74l12.54,2.73c26.56,5.78,59.38,20.07,81.98,35.27l9.58,6.45c20.96,14.1,45.64,37.95,60.46,58.61l8.32,11.6c1.76,2.46,3.75,5.24,5.17,7.79l11.17,20.05c4.28,7.68,12.03,26.06,14.95,34.89l3.01,9.1c.99,2.97,2.17,6.67,2.86,9.66l3.03,13.1c2.99,12.93,4.54,25.36,5.27,38.78.83,15.1.45,43.64-2.14,58.02l-3.21,17.88c-.45,2.48-2.04,5.18-2.08,8.14-.04,2.7-1.46,5.43-2.1,7.76-8.86,32.52-23.56,61.57-43.66,88.65-17.11,23.05-45.46,50.16-69.86,65.34l-5.47,3.4c-16.85,10.48-44.39,23.54-63.54,28.65l-8.84,2.36c-8.97,2.39-26.06,6.12-35.42,7.09-26.36,2.72-60.35,2.7-86.2-2.94l-12.9-2.81-9.36-2.47c-4.34-1.15-24.13-7.78-26.85-9.06l-30.25-14.27ZM1753.77,788.39c2.36.63,23.25,4.77,22.46,4.72l17.13,1.23c12.5.9,23.84.88,36.34.03l16.43-1.11,18.35-3.64c7.75-1.54,21.59-5.55,29.03-8.63l24.06-9.95c5.06-2.09,30.06-17.91,35.88-22.33,14.44-10.97,24.42-19.37,36.38-33.31,16.54-19.29,29.98-39.75,39.99-63.03,3.62-8.42,6.32-16.83,9.29-25.76,7.36-22.04,12.28-61.75,9.5-84.95l-3.14-26.28c-.33-2.8-4.78-20.98-5.96-24.63l-2.94-9.04c-1.02-3.14-2.11-6.48-3.31-9.39l-5.12-12.39c-7.83-18.96-19.26-36.05-32.49-51.96-29.99-36.09-66.48-61.26-110.47-75.75-32.5-10.71-64.56-13.06-99.29-10.25-5.8.47-27.82,4.54-33.55,6.2l-9.2,2.66c-6.71,1.94-13.33,4.31-19.66,6.96l-10.9,4.56c-5.35,2.24-10.82,4.91-15.69,7.84l-13.44,8.08c-2.67,1.6-17.33,11.99-19.77,14.04-10.85,9.11-26.55,24.33-35.42,35.23-18.28,22.45-34.96,51.93-42.98,79.4l-3.2,10.94c-1.08,3.71-2.09,7.16-2.69,11.08l-3.07,20.08c-3.06,19.98-2.88,39,.1,59.01.87,5.85,1.24,11.54,2.57,17.25l3.28,14.05c.68,2.93,1.51,5.75,2.46,8.52l3.85,11.28c1.81,5.31,3.86,10.61,6.34,15.81l9.05,19c.68,1.42,2.33,3.52,4.48,2.8l44.94-15.06,46.57-15.47,11.91-3.95c4.2-1.4,7-1.91,10.62.58,4.94,3.39,6.81,7.83,4.82,13.78l-32.22,96.5c-.98,2.93-1.95,5.15-3.29,8.38,4.95,6.89,42.12,21.53,50.66,23.82l11.36,3.05Z"/>
          <g>
            <path class="cls-1" d="M716.57,818.77c0,9.59-14,21.4-28.57,16.96-9.02-2.75-15.86-10.2-15.86-20.97V215.29c3.16-10.99,4.4-11.67,13.72-17.64,5.54-1.63,12.68-1.8,17.56.29,6.99,3,13.15,9.04,13.15,17.42v603.42Z"/>
            <circle class="cls-1" cx="695.75" cy="58.11" r="58.11"/>
          </g>
        </g>
        <circle class="cls-1" cx="2075.6" cy="291.59" r="75.42"/>
        <circle class="cls-4" cx="1807.3" cy="559.22" r="384.73"/>
      </g>
      <path class="cls-3" d="M1629.8,564.89h85.05c2.6,0,4.99-1.39,6.28-3.64l15.91-27.75c.63-1.09,2.26-.89,2.61.32l30.43,107.75c.63,2.23,3.83,2.09,4.27-.18l37.55-194.47c.29-1.51,2.46-1.49,2.72.03l31.77,184.38c.48,2.76,4.29,3.11,5.27.49l33.6-90.15c.65-1.73,2.97-2.03,4.03-.52l14.95,21.18c1.54,2.19,4.05,3.49,6.73,3.51l82.69.44"/>
    </g>
  </g>
</svg>